# xmcd
# 
# Track frame offsets:
#     150
#     15048
#     29923
# 
# Disc length: 595
# 
# Revision: 1
# Processed by: cddbd v1.5.2PL0 Copyright (c) Steve Scherf et al.
# Submitted via: BonkEnc v1.0.6
# 
DISCID=18025103
DTITLE=せがた三四郎 - セガサターン・シロ！
DYEAR=1998
DGENRE=Vocal
TTITLE0=セガサターン・シロ！（唄：とみたいちろう）
TTITLE1=セガサターン・シロ！（唄：藤岡弘）
TTITLE2=セガサターン・シロ！（オリジナル・カラオケ）
EXTD=YEAR: 1998
EXTT0=
EXTT1=
EXTT2=
PLAYORDER=
